<svg width="36" height="36" viewBox="0 0 36 36" fill="none" xmlns="http://www.w3.org/2000/svg">
<g clip-path="url(#clip0_101_6158)">
<path d="M7.89899 14.6475C8.60081 12.5242 9.95528 10.6767 11.7692 9.3687C13.583 8.06068 15.7637 7.35891 18 7.3635C20.535 7.3635 22.827 8.2635 24.627 9.7365L29.865 4.5C26.673 1.7175 22.5825 0 18 0C10.905 0 4.79699 4.047 1.85999 9.975L7.89899 14.6475Z" fill="#EA4335"/>
<path d="M24.06 27.0195C22.425 28.074 20.349 28.6365 18 28.6365C15.7726 28.6411 13.6002 27.9449 11.7904 26.6465C9.9805 25.3481 8.62491 23.5134 7.9155 21.402L1.8555 26.0025C3.34237 29.0119 5.6434 31.5441 8.49723 33.3113C11.3511 35.0785 14.6433 36.01 18 36C22.3995 36 26.6025 34.4355 29.751 31.5L24.0615 27.0195H24.06Z" fill="#34A853"/>
<path d="M29.751 31.5C33.0435 28.428 35.181 23.856 35.181 18C35.181 16.935 35.0175 15.7905 34.773 14.727H18V21.6825H27.654C27.1785 24.021 25.899 25.8315 24.0615 27.0195L29.751 31.5Z" fill="#4A90E2"/>
<path d="M7.91549 21.402C7.54852 20.3053 7.3621 19.1564 7.36349 18C7.36349 16.827 7.55099 15.7005 7.89899 14.6475L1.85999 9.97498C0.624558 12.469 -0.012303 15.2168 -8.42365e-06 18C-8.42365e-06 20.88 0.667492 23.595 1.85549 26.0025L7.91549 21.402Z" fill="#FBBC05"/>
</g>
<defs>
<clipPath id="clip0_101_6158">
<rect width="36" height="36" fill="white"/>
</clipPath>
</defs>
</svg>
