<svg width="16" height="16" viewBox="0 0 16 16" fill="none" xmlns="http://www.w3.org/2000/svg">
<g clip-path="url(#clip0_101_6180)">
<path d="M15.1003 14.1182L10.4628 9.48074C11.1824 8.55039 11.5717 7.41289 11.5717 6.21646C11.5717 4.78431 11.0128 3.44146 10.0021 2.42896C8.99135 1.41646 7.64492 0.859314 6.21456 0.859314C4.78421 0.859314 3.43778 1.41824 2.42706 2.42896C1.41456 3.43967 0.857422 4.78431 0.857422 6.21646C0.857422 7.64681 1.41635 8.99324 2.42706 10.004C3.43778 11.0165 4.78242 11.5736 6.21456 11.5736C7.41099 11.5736 8.54671 11.1843 9.47707 10.4665L14.1146 15.1022C14.1282 15.1158 14.1443 15.1266 14.1621 15.1339C14.1799 15.1413 14.1989 15.1451 14.2181 15.1451C14.2374 15.1451 14.2564 15.1413 14.2742 15.1339C14.292 15.1266 14.3081 15.1158 14.3217 15.1022L15.1003 14.3254C15.1139 14.3118 15.1247 14.2956 15.132 14.2779C15.1394 14.2601 15.1432 14.2411 15.1432 14.2218C15.1432 14.2026 15.1394 14.1835 15.132 14.1658C15.1247 14.148 15.1139 14.1318 15.1003 14.1182ZM9.04314 9.04503C8.28599 9.80039 7.28242 10.2165 6.21456 10.2165C5.14671 10.2165 4.14314 9.80039 3.38599 9.04503C2.63064 8.28789 2.21456 7.28431 2.21456 6.21646C2.21456 5.1486 2.63064 4.14324 3.38599 3.38789C4.14314 2.63253 5.14671 2.21646 6.21456 2.21646C7.28242 2.21646 8.28778 2.63074 9.04314 3.38789C9.79849 4.14503 10.2146 5.1486 10.2146 6.21646C10.2146 7.28431 9.79849 8.28967 9.04314 9.04503Z" fill="black" fill-opacity="0.85"/>
</g>
<defs>
<clipPath id="clip0_101_6180">
<rect width="16" height="16" fill="white"/>
</clipPath>
</defs>
</svg>
